<svg width="47" height="47" viewBox="0 0 47 47" fill="none" xmlns="http://www.w3.org/2000/svg">
<path d="M3.9165 43.0831L23.0222 20.1562L43.0832 43.0831" stroke="#999999" stroke-width="4" stroke-linecap="round"/>
<path d="M23.022 20.1563V13.4694M23.022 13.4694V4.1165C23.022 4.00605 23.1115 3.9165 23.222 3.9165H36.196C36.3064 3.9165 36.396 4.00605 36.396 4.1165V13.2694C36.396 13.3798 36.3064 13.4694 36.196 13.4694H23.022Z" stroke="#999999" stroke-width="4"/>
<path d="M13.4692 29.709L19.0595 35.2993C19.1376 35.3774 19.2643 35.3774 19.3424 35.2993L22.8807 31.761C22.9588 31.6829 23.0854 31.6829 23.1635 31.761L26.7018 35.2993C26.7799 35.3774 26.9065 35.3774 26.9846 35.2993L32.5749 29.709" stroke="#999999" stroke-width="4"/>
</svg>
