<svg width="47" height="47" viewBox="0 0 47 47" fill="none" xmlns="http://www.w3.org/2000/svg">
<path d="M8.8125 8.81234C8.8125 9.45527 8.93913 10.0919 9.18517 10.6859C9.43121 11.2799 9.79184 11.8196 10.2465 12.2742C10.7011 12.7288 11.2408 13.0895 11.8348 13.3355C12.4288 13.5815 13.0654 13.7082 13.7083 13.7082C14.3513 13.7082 14.9879 13.5815 15.5819 13.3355C16.1759 13.0895 16.7156 12.7288 17.1702 12.2742C17.6248 11.8196 17.9855 11.2799 18.2315 10.6859C18.4775 10.0919 18.6042 9.45527 18.6042 8.81234C18.6042 8.16941 18.4775 7.53277 18.2315 6.93878C17.9855 6.34479 17.6248 5.80508 17.1702 5.35046C16.7156 4.89584 16.1759 4.53522 15.5819 4.28918C14.9879 4.04314 14.3513 3.9165 13.7083 3.9165C13.0654 3.9165 12.4288 4.04314 11.8348 4.28918C11.2408 4.53522 10.7011 4.89584 10.2465 5.35046C9.79184 5.80508 9.43121 6.34479 9.18517 6.93878C8.93913 7.53277 8.8125 8.16941 8.8125 8.81234Z" stroke="#999999" stroke-width="4" stroke-linecap="round" stroke-linejoin="round"/>
<path d="M3.9165 28.3957C3.9165 22.9879 8.3004 18.604 13.7082 18.604" stroke="#999999" stroke-width="4" stroke-linecap="round" stroke-linejoin="round"/>
<path d="M43.0832 28.3957C43.0832 22.9879 38.6994 18.604 33.2915 18.604" stroke="#999999" stroke-width="4" stroke-linecap="round" stroke-linejoin="round"/>
<path d="M28.3955 8.81234C28.3955 9.45527 28.5221 10.0919 28.7682 10.6859C29.0142 11.2799 29.3748 11.8196 29.8295 12.2742C30.2841 12.7288 30.8238 13.0895 31.4178 13.3355C32.0118 13.5815 32.6484 13.7082 33.2913 13.7082C33.9343 13.7082 34.5709 13.5815 35.1649 13.3355C35.7589 13.0895 36.2986 12.7288 36.7532 12.2742C37.2078 11.8196 37.5685 11.2799 37.8145 10.6859C38.0605 10.0919 38.1872 9.45527 38.1872 8.81234C38.1872 7.51388 37.6714 6.26861 36.7532 5.35046C35.8351 4.43231 34.5898 3.9165 33.2913 3.9165C31.9929 3.9165 30.7476 4.43231 29.8295 5.35046C28.9113 6.26861 28.3955 7.51388 28.3955 8.81234Z" stroke="#999999" stroke-width="4" stroke-linecap="round" stroke-linejoin="round"/>
<path d="M33.2913 43.0832C33.2913 37.6752 28.9074 33.2915 23.4997 33.2915C18.0919 33.2915 13.708 37.6752 13.708 43.0832" stroke="#999999" stroke-width="4" stroke-linecap="round" stroke-linejoin="round"/>
<path d="M18.604 23.4998C18.604 24.7983 19.1198 26.0436 20.038 26.9617C20.9561 27.8799 22.2014 28.3957 23.4998 28.3957C24.7983 28.3957 26.0436 27.8799 26.9617 26.9617C27.8799 26.0436 28.3957 24.7983 28.3957 23.4998C28.3957 22.2014 27.8799 20.9561 26.9617 20.038C26.0436 19.1198 24.7983 18.604 23.4998 18.604C22.2014 18.604 20.9561 19.1198 20.038 20.038C19.1198 20.9561 18.604 22.2014 18.604 23.4998Z" stroke="#999999" stroke-width="4" stroke-linecap="round" stroke-linejoin="round"/>
</svg>
